PathFileType	4	(X/Y/Z)	D:\TRACE\v60_Jaco2_6-2-23\ArmBodyNoDRS1-v60.trc
DataRate	CameraRate	NumFrames	NumMarkers	Units	OrigDataRate	OrigDataStartFrame	OrigNumFrames
100.00	100.00	      27	9	mm	100.00	1996	      5320
Frame#	Time	front left toe			Front right toe			aft left toe			aft right toe			Arm			FL body			FR body			AL Body			AR Body			
		X1	Y1	Z1	X2	Y2	Z2	X3	Y3	Z3	X4	Y4	Z4	X5	Y5	Z5	X6	Y6	Z6	X7	Y7	Z7	X8	Y8	Z8	X9	Y9	Z9	

1996	19.950	-144.47670	20.15731	-258.92603	245.41002	151.76021	-261.52966	-133.86391	141.56268	355.84598	229.91946	17.22523	363.80078	56.95759	1138.35010	-643.41064	-27.97362	571.96826	-399.84708	131.38158	577.95374	-397.46777	-32.03793	566.38013	547.09210	123.32377	559.49701	549.00946	
1997	19.960	-144.46776	20.19194	-258.87537	244.45981	147.51828	-261.72101	-133.98427	138.03964	356.19196	229.94023	17.18361	363.83142	56.16690	1138.31812	-643.62952	-28.19066	572.24268	-399.74161	131.06490	578.24023	-397.47330	-31.91038	566.36963	547.08447	122.31194	559.43982	548.95770	
1998	19.970	-144.40863	20.22444	-258.80582	244.65784	143.44505	-261.35645	-135.23633	133.84912	356.58603	229.99260	17.17451	363.85428	54.97467	1138.37830	-644.02539	-28.42285	572.41144	-399.58585	130.96053	578.35785	-397.48660	-31.14821	566.39349	547.56049	123.61212	559.46198	548.91968	
1999	19.980	-144.41019	20.20770	-258.79721	242.54088	137.70308	-262.13986	-136.04984	129.22098	356.67642	229.91730	17.13532	363.83978	54.41539	1138.46631	-644.08655	-28.57136	572.40668	-399.60956	130.61992	578.39288	-397.66254	-30.59697	566.34344	547.54980	124.31522	559.55212	548.48590	
2000	19.990	-144.42743	20.14848	-258.80624	242.09636	131.49913	-262.20264	-137.61343	123.81859	356.36685	229.96460	17.07984	363.82376	53.99931	1138.54358	-644.03424	-28.70503	572.17725	-399.68182	130.37724	578.26544	-397.68155	-30.19860	566.33997	547.49976	124.68118	559.51843	548.42786	
2001	20.000	-144.50764	20.12395	-258.83557	241.98381	124.92806	-262.31866	-138.54300	117.61948	356.22653	229.95638	17.06050	363.80460	53.70509	1138.52283	-643.92603	-28.97164	571.87909	-399.77020	129.66344	577.88226	-397.54611	-30.11177	566.30164	547.40747	124.59451	559.39557	548.76514	
2002	20.010	-144.54498	19.97675	-258.79877	241.01045	117.60059	-263.10709	-140.19759	111.28841	355.96533	229.99019	17.02735	363.80862	53.36335	1138.43103	-643.73889	-29.53827	571.62891	-399.66693	129.21059	577.78955	-397.62476	-29.93557	566.09155	547.41357	124.65400	559.17596	548.72015	
2003	20.020	-144.60576	19.91831	-258.79590	239.89085	109.51838	-263.78900	-140.38663	103.62862	355.57468	230.02548	17.00020	363.81567	53.21354	1138.00342	-643.67236	-29.64041	571.42938	-399.16467	128.93788	577.78094	-397.57745	-30.06561	565.88336	547.41565	124.94844	558.91583	548.25165	
2004	20.030	-144.58926	19.93335	-258.74850	238.68034	101.92951	-264.63000	-142.15065	96.37257	354.96194	230.11108	16.97329	363.77240	52.86728	1137.71277	-643.78290	-29.80798	571.49597	-399.16589	128.52145	577.86096	-397.61368	-29.99837	565.68707	547.38495	125.21064	558.67676	548.21094	
2005	20.040	-144.57275	20.00096	-258.74146	237.33473	93.47424	-265.49142	-143.23909	88.49929	354.38452	230.09882	16.96214	363.77820	52.31239	1137.41431	-643.87360	-29.96836	571.66974	-399.15771	129.14975	578.01660	-397.80902	-29.71360	565.46344	547.31317	125.33806	558.56158	548.24701	
2006	20.050	-144.57372	19.97940	-258.76752	235.99310	84.82732	-266.07535	-143.84727	80.21611	353.95581	230.12234	16.90114	363.78687	52.01237	1137.37634	-643.90936	-30.18775	571.89368	-399.20303	129.01941	578.02704	-397.80353	-29.44017	565.28284	547.38269	125.48574	558.37579	548.22168	
2007	20.060	-144.63527	19.97389	-258.76740	235.32121	76.49579	-266.20422	-145.07193	72.08859	354.01566	230.06854	16.84104	363.74451	51.84105	1137.54980	-643.90637	-30.51124	571.99725	-399.20825	128.80241	578.02954	-397.89236	-29.42019	565.18469	547.34912	125.26254	558.23688	548.68787	
2008	20.070	-144.65353	19.95442	-258.78397	234.67867	68.06060	-265.96344	-145.40514	63.96367	354.28052	230.17282	16.85289	363.74484	51.90596	1137.85742	-643.68646	-30.81198	571.93408	-399.23505	128.44466	577.87024	-397.98071	-29.74139	565.22906	547.31110	125.69042	558.20123	548.90961	
2009	20.080	-144.67159	19.89443	-258.74948	234.35420	60.00670	-265.43845	-146.16011	56.30127	354.81137	230.17221	16.89358	363.68127	52.29045	1138.39258	-643.33600	-31.03700	571.83704	-399.17358	128.08728	577.63770	-398.17853	-29.53036	565.06268	547.19031	125.43858	558.04449	548.58142	
2010	20.090	-144.69461	19.91525	-258.73663	233.56894	51.65434	-265.09897	-146.61450	48.69725	355.78357	230.12373	16.91974	363.70947	52.44720	1138.96252	-643.12640	-31.53099	571.83167	-399.20398	127.69392	577.57220	-398.27234	-29.68909	565.18146	547.16931	124.78590	557.93829	548.69128	
2011	20.100	-144.71739	19.95241	-258.74121	233.74324	44.83013	-263.60275	-146.81860	41.60158	356.74121	230.12256	16.89503	363.69684	52.49643	1139.23120	-643.07257	-31.75382	571.90784	-399.22906	127.33887	577.59399	-398.39337	-29.36827	565.14960	547.12537	124.88604	557.94391	548.68512	
2012	20.110	-144.66193	19.92157	-258.77621	233.32806	37.92914	-262.98535	-146.63672	34.69624	357.44427	230.14023	16.87872	363.70657	52.54219	1139.19946	-643.08545	-31.89770	572.01740	-399.32950	127.06022	577.68042	-398.44876	-29.24372	565.13727	547.10596	125.18027	557.85864	548.67688	
2013	20.120	-144.66792	19.91176	-258.74402	233.33356	31.72885	-262.24039	-146.67955	28.39272	358.00681	230.14311	16.84547	363.70593	52.55846	1139.01428	-643.20679	-32.03616	572.05206	-399.38467	126.85321	577.76410	-398.52795	-29.35502	565.02496	547.05432	124.47805	557.78558	548.29028	
2014	20.130	-144.64761	19.90751	-258.73758	233.65909	25.31140	-261.77933	-147.24055	22.11637	358.09647	230.09399	16.86837	363.71887	52.45868	1138.60400	-643.37799	-32.18255	572.05701	-399.39203	126.33298	577.52008	-398.14404	-29.89271	565.09082	547.03918	124.97293	557.50714	547.59961	
2015	20.140	-144.61441	19.87433	-258.70377	233.83382	20.85491	-262.67410	-147.74936	15.29010	357.89224	230.15335	16.87107	363.75717	52.19663	1138.14246	-643.62677	-32.29656	572.07080	-399.37070	126.17092	577.54572	-398.11356	-29.89121	565.02911	547.04987	125.82855	557.51733	547.51611	
2016	20.150	-144.53577	19.86672	-258.70728	234.12141	18.11222	-262.96036	-148.41135	14.43055	357.28552	230.05798	16.82709	363.76349	51.94539	1137.88574	-643.81067	-32.68107	572.42499	-399.63309	126.08034	577.71228	-398.20438	-29.68262	565.17761	546.84631	124.22460	557.75787	548.06812	
2017	20.160	-144.42947	19.99382	-258.55539	234.41272	17.96733	-263.37268	-148.75955	14.39798	356.34439	229.98099	17.01040	363.81082	51.52381	1137.90308	-644.09607	-32.65617	572.83881	-399.28766	126.27608	578.37061	-398.65186	-29.94072	566.13214	546.58881	124.16654	558.52496	547.97986	
2018	20.170	-144.31749	20.80939	-258.52740	234.18735	18.00873	-263.22073	-148.45468	14.84961	356.98795	230.09486	17.81352	363.51294	51.39116	1138.31860	-644.41675	-33.29243	573.83929	-399.70059	125.80840	579.37860	-398.58759	-29.37197	567.53827	546.80975	125.52862	560.03809	547.98187	
2019	20.180	-142.56316	24.09292	-257.73160	233.85974	17.98526	-262.99612	-147.84818	13.34783	357.20746	230.28856	20.93906	365.02457	50.87742	1139.31775	-644.93170	-33.85596	574.48694	-399.82291	125.04366	579.95245	-398.41074	-29.98051	568.21021	546.73663	125.42839	560.49841	547.89026	
2020	20.190	-138.18384	27.28042	-253.93085	233.83388	18.20213	-263.12973	-148.11884	13.11360	356.81573	226.03674	23.63112	367.99396	49.51301	1140.05591	-645.28412	-34.01070	575.46893	-399.72885	125.05412	581.32990	-399.03543	-29.98027	568.50488	546.24414	125.50934	560.71759	547.47992	
2021	20.200	-134.48476	32.23468	-250.44073	233.90428	18.01459	-263.29224	-148.17755	12.95769	356.83426	222.72879	30.05231	370.63791	48.68536	1141.26294	-645.01251	-34.17915	575.76526	-400.10800	124.85580	581.56006	-399.34171	-29.95054	568.55328	545.88708	124.00191	561.03033	547.07629	
2022	20.210	-133.49124	41.71406	-249.64444	233.80678	17.58088	-263.49591	-148.11823	13.00443	356.82919	220.95695	38.46005	371.42343	48.23849	1142.55188	-644.49542	-34.14763	575.65588	-400.46866	124.76910	581.64655	-399.86115	-30.00142	568.68353	545.68805	125.68522	561.37299	546.15967	
